<svg width="18" height="19" viewBox="0 0 18 19" fill="none" xmlns="http://www.w3.org/2000/svg">
<path d="M10 5.16552C12.103 5.16552 13 6.06252 13 8.16552H15C15 4.94052 13.225 3.16552 10 3.16552V5.16552ZM13.422 10.6085C13.2299 10.4339 12.9774 10.3407 12.7178 10.3488C12.4583 10.3568 12.212 10.4653 12.031 10.6515L9.63804 13.1125C9.06204 13.0025 7.90404 12.6415 6.71204 11.4525C5.52004 10.2595 5.15904 9.09852 5.05204 8.52652L7.51104 6.13252C7.69745 5.95165 7.80617 5.70534 7.8142 5.44573C7.82223 5.18611 7.72892 4.93356 7.55404 4.74152L3.85904 0.678522C3.68408 0.485879 3.44092 0.369026 3.18119 0.352782C2.92146 0.336537 2.66564 0.42218 2.46804 0.591522L0.298038 2.45252C0.125149 2.62604 0.0219574 2.85697 0.00803782 3.10152C-0.00696218 3.35152 -0.292962 9.27352 4.29904 13.8675C8.30504 17.8725 13.323 18.1655 14.705 18.1655C14.907 18.1655 15.031 18.1595 15.064 18.1575C15.3086 18.1438 15.5394 18.0402 15.712 17.8665L17.572 15.6955C17.7415 15.4981 17.8273 15.2423 17.8113 14.9826C17.7952 14.7229 17.6785 14.4796 17.486 14.3045L13.422 10.6085Z" fill="#1F1F1F"/>
</svg>
