<svg width="48" height="55" viewBox="0 0 48 55" fill="none" xmlns="http://www.w3.org/2000/svg">
<path d="M35.2767 26.7799C36.1863 26.9904 37.1685 27.1709 38.2284 27.3296C37.1685 27.4883 36.1863 27.6688 35.2767 27.8793C32.0531 28.6253 29.6276 29.7721 27.8516 31.7616C26.0879 33.7373 25.0727 36.4248 24.4093 40.0218C24.2526 40.8714 24.1143 41.7788 23.9906 42.7477C23.8666 41.7787 23.7281 40.8713 23.5712 40.0216C22.9068 36.4245 21.891 33.7372 20.1269 31.7615C18.3505 29.7721 15.9248 28.6253 12.7011 27.8793C11.7915 27.6688 10.8093 27.4883 9.74938 27.3296C10.8093 27.1709 11.7915 26.9904 12.7011 26.7799C15.9248 26.0339 18.3505 24.8871 20.1269 22.8976C21.891 20.922 22.9068 18.2347 23.5712 14.6376C23.7281 13.7879 23.8666 12.8805 23.9906 11.9115C24.1143 12.8804 24.2526 13.7878 24.4093 14.6374C25.0727 18.2344 26.0879 20.9219 27.8516 22.8975C29.6276 24.887 32.0531 26.0339 35.2767 26.7799Z" stroke="#FC3314" stroke-width="2"/>
</svg>
