<svg width="16" height="16" viewBox="0 0 16 16" fill="none" xmlns="http://www.w3.org/2000/svg">
<path d="M8 0.665527C3.875 0.665527 0.5 4.04053 0.5 8.16553C0.5 12.2905 3.875 15.6655 8 15.6655C12.125 15.6655 15.5 12.2905 15.5 8.16553C15.5 4.04053 12.125 0.665527 8 0.665527ZM14.1875 7.79053C12.5625 7.54053 11.125 7.54053 9.75 7.72803C9.625 7.35303 9.4375 7.04053 9.25 6.66553C10.6875 6.04053 11.875 5.16553 12.6875 4.10303C13.5625 5.16553 14.125 6.41553 14.1875 7.79053ZM11.75 3.29053C11 4.29053 9.9375 5.04053 8.625 5.60303C8 4.41553 7.3125 3.29053 6.5 2.16553C7 2.04053 7.5 1.97803 8 1.97803C9.4375 1.97803 10.75 2.47803 11.75 3.29053ZM5.1875 2.66553C6 3.72803 6.75 4.85303 7.375 6.04053C5.875 6.47803 4.0625 6.66553 2 6.72803C2.4375 4.91553 3.625 3.47803 5.1875 2.66553ZM1.8125 8.16553V7.97803C4.1875 7.97803 6.3125 7.72803 8 7.16553C8.125 7.47803 8.3125 7.79053 8.4375 8.04053C6.3125 8.72803 4.5625 10.0405 3.25 12.103C2.375 11.0405 1.8125 9.66553 1.8125 8.16553ZM4.1875 13.0405C5.4375 11.103 7 9.85303 8.9375 9.29053C9.5 10.7905 9.9375 12.353 10.1875 13.978C8.125 14.728 5.875 14.353 4.1875 13.0405ZM11.4375 13.2905C11.1875 11.7905 10.75 10.353 10.25 8.97803C11.4375 8.79053 12.6875 8.85303 14.125 9.10303C13.8125 10.853 12.875 12.353 11.4375 13.2905Z" fill="#1F1F1F"/>
</svg>
