<svg width="15" height="16" viewBox="0 0 15 16" fill="none" xmlns="http://www.w3.org/2000/svg">
<path fill-rule="evenodd" clip-rule="evenodd" d="M4.40795 0.210527C5.20773 0.173709 5.46273 0.165527 7.5 0.165527C9.53727 0.165527 9.79227 0.174391 10.5914 0.210527C11.3905 0.246664 11.9359 0.374164 12.4132 0.558936C12.913 0.7478 13.3664 1.04303 13.7414 1.42485C14.1232 1.79916 14.4177 2.25189 14.6059 2.75235C14.7914 3.22962 14.9182 3.77507 14.955 4.5728C14.9918 5.37394 15 5.62894 15 7.66553C15 9.7028 14.9911 9.9578 14.955 10.7576C14.9189 11.5553 14.7914 12.1008 14.6059 12.578C14.4177 13.0785 14.1227 13.532 13.7414 13.9069C13.3664 14.2887 12.913 14.5833 12.4132 14.7714C11.9359 14.9569 11.3905 15.0837 10.5927 15.1205C9.79227 15.1573 9.53727 15.1655 7.5 15.1655C5.46273 15.1655 5.20773 15.1567 4.40795 15.1205C3.61023 15.0844 3.06477 14.9569 2.5875 14.7714C2.08699 14.5832 1.63351 14.2882 1.25864 13.9069C0.877077 13.5323 0.581806 13.0791 0.393409 12.5787C0.208636 12.1014 0.0818182 11.556 0.045 10.7583C0.00818181 9.95712 0 9.70212 0 7.66553C0 5.62825 0.00886363 5.37325 0.045 4.57416C0.0811364 3.77507 0.208636 3.22962 0.393409 2.75235C0.582084 2.25195 0.877581 1.7987 1.25932 1.42416C1.63366 1.04269 2.08669 0.747421 2.58682 0.558936C3.06409 0.374164 3.60955 0.247346 4.40727 0.210527H4.40795ZM10.5307 1.56053C9.73977 1.52439 9.5025 1.51689 7.5 1.51689C5.4975 1.51689 5.26023 1.52439 4.46932 1.56053C3.73773 1.59394 3.34091 1.71598 3.07636 1.81894C2.72659 1.9553 2.47636 2.11689 2.21386 2.37939C1.96503 2.62147 1.77353 2.91617 1.65341 3.24189C1.55045 3.50644 1.42841 3.90325 1.395 4.63485C1.35886 5.42575 1.35136 5.66303 1.35136 7.66553C1.35136 9.66803 1.35886 9.9053 1.395 10.6962C1.42841 11.4278 1.55045 11.8246 1.65341 12.0892C1.77341 12.4144 1.965 12.7096 2.21386 12.9517C2.45591 13.2005 2.75114 13.3921 3.07636 13.5121C3.34091 13.6151 3.73773 13.7371 4.46932 13.7705C5.26023 13.8067 5.49682 13.8142 7.5 13.8142C9.50318 13.8142 9.73977 13.8067 10.5307 13.7705C11.2623 13.7371 11.6591 13.6151 11.9236 13.5121C12.2734 13.3758 12.5236 13.2142 12.7861 12.9517C13.035 12.7096 13.2266 12.4144 13.3466 12.0892C13.4495 11.8246 13.5716 11.4278 13.605 10.6962C13.6411 9.9053 13.6486 9.66803 13.6486 7.66553C13.6486 5.66303 13.6411 5.42575 13.605 4.63485C13.5716 3.90325 13.4495 3.50644 13.3466 3.24189C13.2102 2.89212 13.0486 2.64189 12.7861 2.37939C12.544 2.13058 12.2493 1.93908 11.9236 1.81894C11.6591 1.71598 11.2623 1.59394 10.5307 1.56053ZM6.54205 9.97757C7.07704 10.2003 7.67276 10.2303 8.22745 10.0626C8.78215 9.89489 9.2614 9.53979 9.58337 9.05797C9.90534 8.57614 10.05 7.99748 9.99276 7.42083C9.93548 6.84417 9.67978 6.30528 9.26932 5.89621C9.00766 5.63472 8.69128 5.43449 8.34295 5.30995C7.99463 5.1854 7.62302 5.13964 7.25488 5.17595C6.88675 5.21226 6.53124 5.32974 6.21396 5.51993C5.89667 5.71013 5.62551 5.96831 5.41998 6.27588C5.21445 6.58345 5.07967 6.93277 5.02535 7.29868C4.97103 7.6646 4.99851 8.038 5.10582 8.39202C5.21313 8.74603 5.3976 9.07185 5.64595 9.34602C5.89429 9.62019 6.20034 9.83588 6.54205 9.97757ZM4.77409 4.93962C5.13206 4.58165 5.55704 4.29769 6.02475 4.10396C6.49246 3.91022 6.99375 3.81051 7.5 3.81051C8.00625 3.81051 8.50754 3.91022 8.97525 4.10396C9.44296 4.29769 9.86794 4.58165 10.2259 4.93962C10.5839 5.29759 10.8678 5.72256 11.0616 6.19028C11.2553 6.65799 11.355 7.15928 11.355 7.66553C11.355 8.17178 11.2553 8.67307 11.0616 9.14078C10.8678 9.60849 10.5839 10.0335 10.2259 10.3914C9.50295 11.1144 8.52241 11.5205 7.5 11.5205C6.47759 11.5205 5.49705 11.1144 4.77409 10.3914C4.05113 9.66848 3.64498 8.68794 3.64498 7.66553C3.64498 6.64311 4.05113 5.66257 4.77409 4.93962ZM12.21 4.38462C12.2987 4.30094 12.3697 4.20031 12.4188 4.08869C12.468 3.97707 12.4942 3.85673 12.496 3.7348C12.4977 3.61286 12.475 3.49181 12.4292 3.37881C12.3833 3.2658 12.3153 3.16315 12.2291 3.07692C12.1428 2.99069 12.0402 2.92263 11.9272 2.87679C11.8142 2.83094 11.6931 2.80824 11.5712 2.81002C11.4492 2.81179 11.3289 2.83802 11.2173 2.88714C11.1057 2.93626 11.005 3.00727 10.9214 3.09598C10.7586 3.2685 10.6695 3.49766 10.673 3.7348C10.6764 3.97194 10.7722 4.1984 10.9399 4.3661C11.1076 4.5338 11.334 4.62955 11.5712 4.633C11.8083 4.63646 12.0375 4.54736 12.21 4.38462Z" fill="#1F1F1F"/>
</svg>
