<svg width="18" height="22" viewBox="0 0 18 22" fill="none" xmlns="http://www.w3.org/2000/svg">
<path d="M9.00001 0.665527C6.81276 0.668108 4.71584 1.53813 3.16923 3.08475C1.62261 4.63136 0.752589 6.72828 0.750009 8.91553C0.747389 10.7029 1.33124 12.4419 2.41201 13.8655C2.41201 13.8655 2.63701 14.1618 2.67376 14.2045L9.00001 21.6655L15.3293 14.2008C15.3623 14.161 15.588 13.8655 15.588 13.8655L15.5888 13.8633C16.669 12.4402 17.2526 10.7021 17.25 8.91553C17.2474 6.72828 16.3774 4.63136 14.8308 3.08475C13.2842 1.53813 11.1873 0.668108 9.00001 0.665527ZM9.00001 11.9155C8.40666 11.9155 7.82665 11.7396 7.3333 11.4099C6.83995 11.0803 6.45543 10.6118 6.22837 10.0636C6.00131 9.5154 5.9419 8.9122 6.05765 8.33026C6.17341 7.74831 6.45913 7.21376 6.87869 6.79421C7.29825 6.37465 7.83279 6.08893 8.41474 5.97317C8.99668 5.85742 9.59988 5.91683 10.1481 6.14389C10.6962 6.37095 11.1648 6.75547 11.4944 7.24882C11.8241 7.74216 12 8.32218 12 8.91553C11.999 9.71087 11.6826 10.4734 11.1202 11.0358C10.5578 11.5981 9.79535 11.9145 9.00001 11.9155Z" fill="#1F1F1F"/>
</svg>
