<svg width="15" height="13" viewBox="0 0 15 13" fill="none" xmlns="http://www.w3.org/2000/svg">
<path d="M15 1.59098C14.4484 1.8253 13.8481 1.99394 13.2298 2.05962C13.8717 1.68406 14.3525 1.09074 14.5818 0.390978C13.9794 0.743858 13.3195 0.991304 12.6313 1.12234C12.3437 0.819546 11.9958 0.578327 11.6094 0.413713C11.2229 0.2491 10.8062 0.164619 10.3852 0.165535C8.68165 0.165535 7.31162 1.5253 7.31162 3.19394C7.31162 3.42825 7.34046 3.66257 7.38733 3.88802C4.83656 3.75666 2.56159 2.55666 1.04915 0.71938C0.77357 1.1829 0.629156 1.71067 0.630934 2.24778C0.630934 3.29867 1.17354 4.2253 2.00096 4.77027C1.51335 4.75136 1.03715 4.61937 0.611104 4.38506V4.42234C0.611104 5.89393 1.66747 7.11346 3.07535 7.39393C2.81101 7.46155 2.53907 7.49614 2.26595 7.49689C2.06586 7.49689 1.87658 7.47737 1.68549 7.45074C2.07487 8.65074 3.20875 9.52233 4.55895 9.55074C3.50258 10.3655 2.17943 10.8448 0.742699 10.8448C0.484918 10.8448 0.246966 10.8359 0 10.8075C1.36282 11.6685 2.97981 12.1655 4.72119 12.1655C10.3744 12.1655 13.4677 7.5537 13.4677 3.55074C13.4677 3.41938 13.4677 3.28802 13.4587 3.15666C14.0572 2.7253 14.5818 2.19098 15 1.59098Z" fill="#1F1F1F"/>
</svg>
